/* XPM */
static char *result[] = {
/* columns rows colors chars-per-pixel */
"64 64 24 1 ",
"  c #515151",
". c gray33",
"X c #606060",
"o c #686868",
"O c #6C6C6C",
"+ c #6F6F6F",
"@ c gray45",
"# c #777777",
"$ c gray50",
"% c #848484",
"& c #868686",
"* c #929292",
"= c gray59",
"- c #9D9D9D",
"; c gray63",
": c #A9A9A9",
"> c gray68",
", c gray72",
"< c gray74",
"1 c #C0C0C0",
"2 c LightGray",
"3 c #DFDFDF",
"4 c #EAEAEA",
"5 c gray95",
/* pixels */
"                                                                ",
"2;;;;;>>>>>,,,>,,,>,>,>,>>>>>>>>>>>>;;;;;;;;;;;;;;;;;;;;;;;;;;;.",
"2-;;11-;>>>>,>,>,>,,,,,>,>,>,>,>>>>>>>>>>>>>>>>;;;;;;;;;;;11-;;.",
"2*-152&#;;>>;>>,>,>,>,,,,,,,>,>,>,>,>,>>>>>>>>>>>>>>>>>>>152&#;.",
"2**12-&#;;;;>;>>>>>>,>,>,,,,,,,,,,,>,>,>,>,>,>>>>>>>>>>>>12-&#>.",
"2&**-&#;--;;;;;>;>;>>>>,>,>,,,,,,,,,,,,,,,>,>,>,>,>,>>>>>>-&#;;.",
"2&&&**=---;;;;;;>;>;>>>>>>,>>>,,,,,,,,,,,,,,,,,>>>,>>>,>,>>>>>>.",
"2&&&&**==-----;;;;;>;>;>>>>>>,>,>,,,,,,,,,,,,,,,,,,,,,>,>,>,>,>.",
"2&&&&&&**==OOOOOOOOOOOOOOOOOOOOOOOOOOOOOOOOOOOOOOOOOO4,,,,,>,>,.",
"2$&&&&&&***O........OOOOOOOOOOOOOOOOOOOOOOOOOOOOOOOO14,,,,,,,,,.",
"2$$&::-&&&*O.%%%%%%%%**************>>>>>>>>><<<<<<<<24,,,,11-;,.",
"1#$:2,&O&&&O.%%%%%%%%%**************>>>>>>>>><<<<<<<24,,,152&#,.",
"1##*,-&O&&&O.%%%%%%%%%%**************>>>>>>>>><<<<<<24,,,12-&#,.",
"1###*&OO$&&o.$%%%%%%%%%%**************>>>>>>>>><<<<<24,,,>-&#;,.",
"1###OOO#&$&o.$$$%%%%%%%%%**************>>>>>>>>>><<<24,>,,,,,,,.",
"1@####$$#$$o.$$$$$%%%%%%%%**************>>>>>>>>>><<24>,>,>,,,,.",
"1@@####$$$$o.$$$$$$$%%%%%%%**************>>>>>>>>>><24>>>>,>,>,.",
"1@@@####$$$o.$$$$$$$$%%%%%%%%*************>>>>>>>>>>24>>>>>>>,>.",
",@@$**&##$$o.$$$$$$$$$%%%%%%%%*************>>>>>>>>>24>>>;11-;>.",
",+@*>-&O##$o.$$$$$$$$$$%%%%%%%%*************>>>>>>>>24;>>152&#>.",
",+@&--@.###o.$$$$$$$$$$$%%%%%%%%*************>>>>>>>24>>>12-&#>.",
",++O@OO.@##..$$$$$$$$$$$$%%%%%%%%*************>>>>>>24;>;>-&#;>.",
",++o...o#@#..$$$$$$$$$$$$$%%%%%%%%*************>>>>>24>;>>>>>>>.",
",O+++@@@@#@..@$$$$$$$$$$$$$%%%%%%%%%************>>>>24;;;>;>;>;.",
",O+++@@@@@#..@@$$$$$$$$$$$$$%%%%%%%%%************>>>24;;;;;;>;>.",
",oO++++@@@@..@@@$$$$$$$$$$$$$%%%%%%%%%************>>24;;;;;;;>;.",
",oO#*&$+@@@..@@@@$$$$$$$$$$$$$%%%%%%%%%************>14;;;;11-;;.",
",oo*>*&O+@@..@@@@@$$$$$$$$$$$$$%%%%%%%%%************14;;;152&#;.",
",Oo&*&O.++@..@@@@@@$$$$$$$$$$$$$%%%%%%%%%***********13;-;12-&#;.",
",+OOOO..+@@..@@@@@@@$$$$$$$$$$$$$$%%%%%%%%**********13*;*>-&#;;.",
",+Oo...o++@..@@@@@@@@$$$$$$$$$$$$$$%%%%%%%%*********13;*;;;-;;;.",
",@+OooO++++..@@@@@@@@@$$$$$$$$$$$$$$%%%%%%%%********13==*;*;*-;.",
">@+OooOO+++..@@@@@@@@@@$$$$$$$$$$$$$$%%%%%%%%*******13=*==;*;;-.",
">@@+OooO+++..@@@@@@@@@@@$$$$$$$$$$$$$$%%%%%%%%******13*=====*;*.",
">@@#&#ooO++..+@@@@@@@@@@@$$$$$$$$$$$$$$%%%%%%%%*****13***;11-;-.",
">@@&-*#OOO+..++@@@@@@@@@@@$$$$$$$$$$$$$%%%%%%%%%****,2***152&#=.",
">#@&*&O.oO+..+++@@@@@@@@@@@$$$$$$$$$$$$$%%%%%%%%****,2***12-&#*.",
">#@OOO..ooO..++++@@@@@@@@@@@$$$$$$$$$$$$$%%%%%%%%***,2****-&#;=.",
":##o...oooO..+++++@@@@@@@@@@@$$$$$$$$$$$$$%%%%%%%%**,2*********.",
":##@@++Oooo..++++++@@@@@@@@@@$$$$$$$$$$$$$$%%%%%%%%*,2*********.",
":##@@@+OOoo..+++++++@@@@@@@@@@$$$$$$$$$$$$$$%%%%%%%%,1*********.",
":###@@++OOo..O+++++++@@@@@@@@@@$$$$$$$$$$$$$$%%%%%%%,1&***&****.",
":##$*&@OOOo..OO+++++++@@@@@@@@@@$$$$$$$$$$$$$$%%%%%%,1&&*;,,-&*.",
":$#*>*&O+OO..oO++++++++@@@@@@@@@@$$$$$$$$$$$$$$%%%%%,1&*&,21&#*.",
":$#&*&O.+OO..oOO++++++++@@@@@@@@@@$$$$$$$$$$$$$%%%%%>1&&&>11&#*.",
":$$OOO..++O..ooOO++++++++@@@@@@@@@@$$$$$$$$$$$$$%%%%>1&&&&-&#&&.",
":$$o...o++O..oooO+++++++++@@@@@@@@@@$$$$$$$$$$$$$%%%>1&&&&&&*&&.",
":$$###@@@++..oooOO+++++++++@@@@@@@@@@$$$$$$$$$$$$$%%>,&&&&&&&*&.",
":$$$##@@@++..OoooOO+++++++++@@@@@@@@@$$$$$$$$$$$$$$$>,&&&&&&&&&.",
":$$$###@@@+..OooooO++++++++++@@@@@@@@@$$$$$$$$$$$$$$:,&&&&&&&&&.",
":$$$*&&#@@+..OOoooOO++++++++++@@@@@@@@@$$$$$$$$$$$$$:,&$&&>>-&&.",
":$$*>*&O@@+..OOOoooOO++++++++++@@@@@@@@@$$$$$$$$$$$$-,$&$>2,&#&.",
":$$&*&O.@@@..OOOooooO+++++++++++@@@@@@@@@$$$$$$$$$$$->$$&>,-$O&.",
":&$OOO..@@@..+OOOoooOo+++++++++++@@@@@@@@@$$$$$$$$$$->$$$&-&#O&.",
":&$o...o#@@.o&&&$$$$$$$$&&&&&&&&&&&&&&&&&&&&&&****--->$$$$&OO&&.",
":&$$$$###@@.$**&&&&&&&&&&&&&*******--------------:>>>>$$$$$&&&&.",
":&$$$$####@@+++OOOooooOo++++++@@@@@@@@@##@########$#$$$$$$$$$&&.",
":&$$$$####@@+++++OOooooO+++++++@@@@@@@@@@#@######$#$$$#$$$$$$$&.",
":&&#**@###@@@+++OOOOooooO+++++++@@@@@@@@@@#@########$#$$$$--&$$.",
":&&*,:#o###@@@+++OOOooooOo+++++++@+@@@@@@@@#@######$#$#$#-1>&O$.",
":&&*:$o.###@@@+++OOOOooooOO+++++++@+@@@@@@@@#@########$#$->-$O$.",
":&&#oo..####@@@+++OOOoooooO++++++++@+@@@@@@@@#@######$#$#$$$OO$.",
":&&o...O####@@@+++OOOOooooOo++++++++@+@@@@@@@@#@########$#OOO$$.",
"XXXXXXXXXXXXXXXXXXXXXXXXXXXXXXXXXXXXXXXXXXXXXXXXXXXXXXXXXXXXXXXX"
};
